<?xml version="1.0" encoding="UTF-8"?>
<svg id="_Ñëîé_2" data-name="Ñëîé_2" xmlns="http://www.w3.org/2000/svg" version="1.1" viewBox="0 0 5442.5 3061.4">
  <!-- Generator: Adobe Illustrator 30.1.0, SVG Export Plug-In . SVG Version: 2.1.1 Build 136)  -->
  <defs>
    <style>
      .st0, .st1 {
        fill: #fff;
      }

      .st2, .st3 {
        fill: #e95a50;
      }

      .st4 {
        fill: #b4dce6;
      }

      .st5 {
        fill: #3c3c5a;
      }

      .st1 {
        opacity: .4;
      }

      .st6 {
        fill: none;
        stroke-dasharray: 19.9 19.9;
        stroke-width: 10px;
      }

      .st6, .st3 {
        stroke: #3c3c5a;
        stroke-miterlimit: 10;
      }

      .st3 {
        stroke-width: 15px;
      }

      .st7 {
        fill: #a0bedc;
      }
    </style>
  </defs>
  <g>
    <path class="st4" d="M3205.5,2027.8s-1335.3,201.8-1508.5-315.2c-148-442,125.1-808.2,568-770.5,390.4,33.2,570.6,5,650-141.7,180.9-334.4,558.5-306.8,691.2,0,94.7,218.7,275.8,1055.7-400.7,1227.5Z"/>
    <path class="st6" d="M3290.2,2076.8s-1328.6,199.5-1508.5-315.2c-159.8-457.3,125.1-808.2,568-770.5,390.4,33.2,570.6,5,650-141.7,180.9-334.4,558.5-306.8,691.2,0,94.7,218.7,275.8,1055.7-400.7,1227.5Z"/>
  </g>
  <g>
    <g>
      <path class="st0" d="M2122.1,2481.9v-941c0-25.4,20.7-46.1,46.1-46.1s46.1,20.7,46.1,46.1v941h-92.2Z"/>
      <path class="st5" d="M2168.1,1502.8c21,0,38.1,17.1,38.1,38.1v933h-76.2v-933c0-21,17.1-38.1,38.1-38.1M2168.1,1486.8c-29.8,0-54.1,24.3-54.1,54.1v948.9h108.1v-948.9c0-29.8-24.3-54.1-54.1-54.1h0Z"/>
    </g>
    <g>
      <path class="st0" d="M3245.2,2481.9v-941c0-25.4,20.7-46.1,46.1-46.1s46.1,20.7,46.1,46.1v941h-92.2Z"/>
      <path class="st5" d="M3291.3,1502.8c21,0,38.1,17.1,38.1,38.1v933h-76.2v-933c0-21,17.1-38.1,38.1-38.1h0M3291.3,1486.8c-29.8,0-54.1,24.3-54.1,54.1v948.9h108.1v-948.9c0-29.8-24.3-54.1-54.1-54.1h0Z"/>
    </g>
    <g>
      <rect class="st0" x="2051" y="1567.4" width="1349.1" height="268.5"/>
      <path class="st5" d="M3392.1,1575.4v252.6h-1333.1v-252.6h1333.1M3408.1,1559.4h-1365v284.5h1365v-284.5h0Z"/>
    </g>
    <polygon class="st2" points="2288.2 1575.4 2059 1804.5 2059 1668.5 2152.2 1575.4 2288.2 1575.4"/>
    <polygon class="st2" points="2556.7 1575.4 2304.1 1827.9 2168.1 1827.9 2420.7 1575.4 2556.7 1575.4"/>
    <polygon class="st2" points="2825.3 1575.4 2572.7 1827.9 2436.7 1827.9 2689.3 1575.4 2825.3 1575.4"/>
    <polygon class="st2" points="3093.8 1575.4 2841.2 1827.9 2705.2 1827.9 2957.8 1575.4 3093.8 1575.4"/>
    <polygon class="st2" points="3362.3 1575.4 3109.7 1827.9 2973.7 1827.9 3226.3 1575.4 3362.3 1575.4"/>
    <polygon class="st2" points="3392.1 1678.1 3392.1 1814.1 3378.3 1827.9 3242.3 1827.9 3392.1 1678.1"/>
    <rect class="st1" x="2059" y="1575.4" width="1333.1" height="26.7"/>
    <g>
      <rect class="st0" x="2051" y="2173.8" width="1349.1" height="182.9"/>
      <path class="st5" d="M3392.1,2181.8v166.9h-1333.1v-166.9h1333.1M3408.1,2165.8h-1365v198.8h1365v-198.8h0Z"/>
    </g>
    <polygon class="st2" points="2259.2 2181.8 2092.3 2348.7 2059 2348.7 2059 2238.2 2115.5 2181.8 2259.2 2181.8"/>
    <polygon class="st2" points="2524.1 2181.8 2357.2 2348.7 2213.5 2348.7 2380.4 2181.8 2524.1 2181.8"/>
    <polygon class="st2" points="2789 2181.8 2622.1 2348.7 2478.4 2348.7 2645.3 2181.8 2789 2181.8"/>
    <polygon class="st2" points="3053.9 2181.8 2887 2348.7 2743.3 2348.7 2910.2 2181.8 3053.9 2181.8"/>
    <polygon class="st2" points="3318.8 2181.8 3151.9 2348.7 3008.2 2348.7 3175.1 2181.8 3318.8 2181.8"/>
    <polygon class="st2" points="3392.1 2229.7 3392.1 2348.7 3273.1 2348.7 3392.1 2229.7"/>
    <rect class="st1" x="2059" y="2181.8" width="1333.1" height="26.7"/>
    <rect class="st7" x="2130" y="1843.7" width="76.2" height="54.7"/>
    <rect class="st7" x="3253.2" y="1843.7" width="76.2" height="54.7"/>
    <rect class="st7" x="2130" y="2364.4" width="76.2" height="36.9"/>
    <rect class="st7" x="3253.2" y="2364.4" width="76.2" height="36.9"/>
    <g>
      <path class="st2" d="M2168.1,1493.5c-34.3,0-62.2-27.9-62.2-62.2s27.9-62.2,62.2-62.2,62.2,27.9,62.2,62.2-27.9,62.2-62.2,62.2Z"/>
      <path class="st5" d="M2168.1,1377.1c30,0,54.2,24.3,54.2,54.2s-24.3,54.2-54.2,54.2-54.2-24.3-54.2-54.2,24.3-54.2,54.2-54.2M2168.1,1361.1c-38.7,0-70.2,31.5-70.2,70.2s31.5,70.2,70.2,70.2,70.2-31.5,70.2-70.2-31.5-70.2-70.2-70.2h0Z"/>
    </g>
    <circle class="st0" cx="2168.1" cy="1431.3" r="25.8" transform="translate(-382.7 938.7) rotate(-22.5)"/>
    <g>
      <path class="st2" d="M3291.3,1493.5c-34.3,0-62.2-27.9-62.2-62.2s27.9-62.2,62.2-62.2,62.2,27.9,62.2,62.2-27.9,62.2-62.2,62.2Z"/>
      <path class="st5" d="M3291.3,1377.1c30,0,54.2,24.3,54.2,54.2s-24.3,54.2-54.2,54.2-54.2-24.3-54.2-54.2,24.3-54.2,54.2-54.2M3291.3,1361.1c-38.7,0-70.2,31.5-70.2,70.2s31.5,70.2,70.2,70.2,70.2-31.5,70.2-70.2-31.5-70.2-70.2-70.2h0Z"/>
    </g>
    <circle class="st0" cx="3291.3" cy="1431.3" r="25.8" transform="translate(-297.2 1368.5) rotate(-22.5)"/>
  </g>
  <g>
    <line class="st0" x1="1801.3" y1="2481.7" x2="3940.9" y2="2481.7"/>
    <rect class="st5" x="1511.2" y="2473.8" width="2429.7" height="16"/>
  </g>
  <g>
    <g>
      <rect class="st3" x="3488.4" y="2432.9" width="444" height="47.1"/>
      <g>
        <polygon class="st2" points="3551.2 2432.4 3584 2299.8 3597 2247.1 3625.3 2132.8 3676.3 1926.5 3744.7 1926.5 3808.7 2185.4 3823.9 2247.1 3869.7 2432.4 3551.2 2432.4"/>
        <path class="st5" d="M3738.4,1934.5l49.5,200.2,13,52.6,15.3,61.7,13,52.6,30.3,122.7h-298.1l30.3-122.7,13-52.6,15.2-61.7,13-52.6,49.5-200.2h55.9M3750.9,1918.5h-80.9l-3,12.1-49.5,200.2-13,52.6-15.2,61.7-13,52.6-30.3,122.7-4.9,19.8h338.9l-4.9-19.8-30.3-122.7-13-52.6-15.3-61.7-13-52.6-49.5-200.2-3-12.1h0Z"/>
      </g>
      <polygon class="st0" points="3800.9 2187.4 3620 2187.4 3633 2134.7 3787.9 2134.7 3800.9 2187.4"/>
      <polygon class="st0" points="3829.2 2301.7 3591.7 2301.7 3604.8 2249.1 3816.2 2249.1 3829.2 2301.7"/>
      <polygon class="st1" points="3859.5 2424.4 3829.2 2424.4 3718.8 1934.5 3738.4 1934.5 3859.5 2424.4"/>
    </g>
    <g>
      <rect class="st3" x="1518.7" y="2432.9" width="444" height="47.1"/>
      <g>
        <polygon class="st2" points="1581.4 2432.4 1614.2 2299.8 1627.2 2247.1 1655.5 2132.8 1706.5 1926.5 1774.9 1926.5 1838.9 2185.4 1854.1 2247.1 1899.9 2432.4 1581.4 2432.4"/>
        <path class="st5" d="M1768.7,1934.5l49.5,200.2,13,52.6,15.3,61.7,13,52.6,30.3,122.7h-298.1l30.3-122.7,13-52.6,15.2-61.7,13-52.6,49.5-200.2h55.9M1781.1,1918.5h-80.9l-3,12.1-49.5,200.2-13,52.6-15.2,61.7-13,52.6-30.3,122.7-4.9,19.8h338.9l-4.9-19.8-30.3-122.7-13-52.6-15.3-61.7-13-52.6-49.5-200.2-3-12.1h0Z"/>
      </g>
      <polygon class="st0" points="1831.1 2187.4 1650.2 2187.4 1663.2 2134.7 1818.1 2134.7 1831.1 2187.4"/>
      <polygon class="st0" points="1859.4 2301.7 1622 2301.7 1635 2249.1 1846.4 2249.1 1859.4 2301.7"/>
      <polygon class="st1" points="1889.7 2424.4 1859.4 2424.4 1749 1934.5 1768.7 1934.5 1889.7 2424.4"/>
    </g>
  </g>
  <g>
    <g>
      <path class="st0" d="M1818.1,1101.5c-32,0-58-26-58-58s26-58,58-58,18.1,2.1,26.1,6.2c0-.5,0-1,0-1.5,0-32,26-58,58-58s19.8,2.6,28.4,7.4c5.2-35.6,35.9-63,72.9-63s58.7,19.7,69.2,48.3c10.3-8.4,23.1-13,36.6-13,32,0,58,26,58,58s-.4,7.6-1.1,11.3c5.6-1.6,11.4-2.5,17.2-2.5,33.9,0,61.4,27.6,61.4,61.4s-27.6,61.4-61.4,61.4h-365.3Z"/>
      <path class="st5" d="M2003.5,882.9c32.6,0,59.8,23.3,65.9,54.2,9.5-11.5,23.8-18.9,39.9-18.9,28.5,0,51.5,23.1,51.5,51.5s-2,16.1-5.4,23.1c8.2-4.9,17.8-7.7,28-7.7,30.3,0,54.9,24.6,54.9,54.9s-24.6,54.9-54.9,54.9h-365.3c-28.5,0-51.5-23.1-51.5-51.5s23.1-51.5,51.5-51.5,25.7,5.2,34.9,13.6c-1.5-4.9-2.4-10.1-2.4-15.4,0-28.5,23.1-51.5,51.5-51.5s25.1,4.9,34.2,13c0-.5,0-1,0-1.4,0-37.1,30.1-67.1,67.1-67.1M2003.5,869.9c-37.3,0-68.7,25.6-77.6,60.1-7.5-3-15.5-4.5-23.7-4.5-32.9,0-60.1,24.7-64.1,56.5-6.4-2.1-13.2-3.2-20-3.2-35.6,0-64.5,29-64.5,64.5s29,64.5,64.5,64.5h365.3c37.5,0,67.9-30.5,67.9-67.9s-30.5-67.9-67.9-67.9-6.5.2-9.7.7c0-1,0-2,0-3.1,0-35.6-29-64.5-64.5-64.5s-23.8,3.4-33.8,9.5c-13.2-26.8-40.9-44.8-72-44.8h0Z"/>
    </g>
    <path class="st7" d="M2236.7,1053.5c-6,23.9-27.6,41.5-53.3,41.5h-365.3c-28.5,0-51.5-23.1-51.5-51.5s4.3-23.5,11.4-32.3c-.9,3.8-1.4,7.8-1.4,11.9,0,28.5,23.1,51.5,51.5,51.5h365.3c17.6,0,33.2-8.2,43.2-21.1Z"/>
  </g>
  <g>
    <g>
      <path class="st0" d="M3752.2,1416.9c-32,0-58-26-58-58s26-58,58-58,18.1,2.1,26.1,6.2c0-.5,0-1,0-1.5,0-32,26-58,58-58s19.8,2.6,28.4,7.4c5.2-35.6,35.9-63,72.9-63s58.7,19.7,69.2,48.3c10.3-8.4,23.1-13,36.6-13,32,0,58,26,58,58s-.4,7.6-1.1,11.3c5.6-1.6,11.4-2.5,17.2-2.5,33.9,0,61.4,27.6,61.4,61.4s-27.6,61.4-61.4,61.4h-365.3Z"/>
      <path class="st5" d="M3937.6,1198.4c32.6,0,59.8,23.3,65.9,54.2,9.5-11.5,23.8-18.9,39.9-18.9,28.5,0,51.5,23.1,51.5,51.5s-2,16.1-5.4,23.1c8.2-4.9,17.8-7.7,28-7.7,30.3,0,54.9,24.6,54.9,54.9s-24.6,54.9-54.9,54.9h-365.3c-28.5,0-51.5-23.1-51.5-51.5s23.1-51.5,51.5-51.5,25.7,5.2,34.9,13.6c-1.5-4.9-2.4-10.1-2.4-15.4,0-28.5,23.1-51.5,51.5-51.5s25.1,4.9,34.2,13c0-.5,0-1,0-1.4,0-37.1,30.1-67.1,67.1-67.1M3937.6,1185.4c-37.3,0-68.7,25.6-77.6,60.1-7.5-3-15.5-4.5-23.7-4.5-32.9,0-60.1,24.7-64.1,56.5-6.4-2.1-13.2-3.2-20-3.2-35.6,0-64.5,29-64.5,64.5s29,64.5,64.5,64.5h365.3c37.5,0,67.9-30.5,67.9-67.9s-30.5-67.9-67.9-67.9-6.5.2-9.7.7c0-1,0-2,0-3.1,0-35.6-29-64.5-64.5-64.5s-23.8,3.4-33.8,9.5c-13.2-26.8-40.9-44.8-72-44.8h0Z"/>
    </g>
    <path class="st7" d="M4170.8,1368.9c-6,23.9-27.6,41.5-53.3,41.5h-365.3c-28.5,0-51.5-23.1-51.5-51.5s4.3-23.5,11.4-32.3c-.9,3.8-1.4,7.8-1.4,11.9,0,28.5,23.1,51.5,51.5,51.5h365.3c17.6,0,33.2-8.2,43.2-21.1Z"/>
  </g>
  <g>
    <g>
      <path class="st0" d="M2772.6,790.1c-32,0-58-26-58-58s26-58,58-58,18.1,2.1,26.1,6.2c0-.5,0-1,0-1.5,0-32,26-58,58-58s19.8,2.6,28.4,7.4c5.2-35.6,35.9-63,72.9-63s58.7,19.7,69.2,48.3c10.3-8.4,23.1-13,36.6-13,32,0,58,26,58,58s-.4,7.6-1.1,11.3c5.6-1.6,11.4-2.5,17.2-2.5,33.9,0,61.4,27.6,61.4,61.4s-27.6,61.4-61.4,61.4h-365.3Z"/>
      <path class="st5" d="M2958.1,571.6c32.6,0,59.8,23.3,65.9,54.2,9.5-11.5,23.8-18.9,39.9-18.9,28.5,0,51.5,23.1,51.5,51.5s-2,16.1-5.4,23.1c8.2-4.9,17.8-7.7,28-7.7,30.3,0,54.9,24.6,54.9,54.9s-24.6,54.9-54.9,54.9h-365.3c-28.5,0-51.5-23.1-51.5-51.5s23.1-51.5,51.5-51.5,25.7,5.2,34.9,13.6c-1.5-4.9-2.4-10.1-2.4-15.4,0-28.5,23.1-51.5,51.5-51.5s25.1,4.9,34.2,13c0-.5,0-1,0-1.4,0-37.1,30.1-67.1,67.1-67.1M2958.1,558.6c-37.3,0-68.7,25.6-77.6,60.1-7.5-3-15.5-4.5-23.7-4.5-32.9,0-60.1,24.7-64.1,56.5-6.4-2.1-13.2-3.2-20-3.2-35.6,0-64.5,29-64.5,64.5s29,64.5,64.5,64.5h365.3c37.5,0,67.9-30.5,67.9-67.9s-30.5-67.9-67.9-67.9-6.5.2-9.7.7c0-1,0-2,0-3.1,0-35.6-29-64.5-64.5-64.5s-23.8,3.4-33.8,9.5c-13.2-26.8-40.9-44.8-72-44.8h0Z"/>
    </g>
    <path class="st7" d="M3191.3,742.1c-6,23.9-27.6,41.5-53.3,41.5h-365.3c-28.5,0-51.5-23.1-51.5-51.5s4.3-23.5,11.4-32.3c-.9,3.8-1.4,7.8-1.4,11.9,0,28.5,23.1,51.5,51.5,51.5h365.3c17.6,0,33.2-8.2,43.2-21.1Z"/>
  </g>
  <g>
    <path class="st2" d="M2542.4,930.2v181.2h41.6v52.1h-41.6v68.6h-69.5v-68.6h-130v-52.1l119.9-181.2h79.6ZM2395.4,1111.4h80.8v-100.6c0-3.9.1-8.6.4-14.2l.4-12.2-81.7,127Z"/>
    <path class="st2" d="M2724.5,1236.6c-36.4,0-64.8-14.4-85-43.3-20.3-28.9-30.4-65.4-30.4-109.6s9.9-79.7,29.6-109.2c19.7-29.5,48.5-44.3,86.2-44.3s66.2,14.8,86.2,44.3c20,29.5,30.1,65.7,30.1,108.4s-10.1,80.3-30.2,109.7c-20.1,29.4-49,44.1-86.6,44.1ZM2725.4,980c-16.4,0-27.8,7.6-34.3,22.8-6.5,15.2-9.7,41.8-9.7,79.8s3.4,65,10.1,79.9c6.8,15,18,22.4,33.6,22.4s26.8-7.3,33.8-22c7-14.7,10.5-40.5,10.5-77.5s-3.4-68.4-10.2-83.2c-6.8-14.8-18.1-22.2-33.8-22.2Z"/>
    <path class="st2" d="M3067.8,930.2v181.2h41.6v52.1h-41.6v68.6h-69.5v-68.6h-130v-52.1l119.9-181.2h79.6ZM2920.8,1111.4h80.8v-100.6c0-3.9.1-8.6.4-14.2l.4-12.2-81.7,127Z"/>
  </g>
  <g>
    <path class="st5" d="M2342.8,1361.8v34.9h-7.7v-72.4c0-8.2,0-14.5-.2-18.6h7.6c.2,2.3.3,7.3.3,11.3,3.6-7.5,10.5-12.7,21.2-12.7s24.5,11.9,24.5,32.5-11.7,34.9-26.9,34.9-15.8-4.3-18.8-10.1ZM2380.4,1337.3c0-16-6.7-25.9-18.5-25.9s-19.5,10.5-19.5,27,3.1,26.5,18.7,26.5,19.3-10.2,19.3-27.6Z"/>
    <path class="st5" d="M2447.2,1357.5c0,4.8.5,10.5,1,13.2h-7.3c-.4-2.2-.9-5.5-1-10.8-2.4,6.6-8.9,12-20.4,12s-20.5-10.8-20.5-19.6,6.6-20.4,29.4-20.4h11.2v-6.9c0-6.5-1.8-14.1-14.7-14.1s-14.3,4.9-15.6,12.6h-7.6c1-10.5,7.1-19.2,23.6-19.2,13.2,0,22,5.7,22,20v33.1ZM2439.7,1338.1h-11.5c-16.9,0-21.2,6.5-21.2,13.9s4.6,13.1,13.5,13.1c14.7,0,19.2-9.9,19.2-25.5v-1.5Z"/>
    <path class="st5" d="M2515.5,1366.3c0,20.4-8.3,31.5-26.9,31.5s-23.8-9.7-24.8-18.9h7.7c1.7,8.2,8.4,12.2,17.3,12.2,15.6,0,19.3-10.4,19.3-25.9v-6c-3.4,7.9-9,11.9-20.2,11.9s-25.3-12.9-25.3-33,11.6-33.8,26.8-33.8,16.7,4.8,18.4,10.4c0-3.4.3-7.4.4-9h7.5c-.1,3-.3,10.3-.3,18.6v42ZM2470.7,1338c0,16.4,7.3,26,18.7,26s18.8-9.1,18.8-26.5-4.6-26.1-18.3-26.1-19.2,10.9-19.2,26.6Z"/>
    <path class="st5" d="M2538.7,1339.4c0,15.4,6.9,25.8,19.1,25.8s15.3-8.1,16.9-12h7.7c-1.9,7.2-7.8,18.9-25,18.9s-26.5-16.9-26.5-34,8.1-33.7,27.1-33.7,25.6,16.3,25.6,30.1,0,4.4,0,4.9h-44.8ZM2575.7,1333.1c-.3-12.7-5.7-22-18.1-22s-17.9,12.5-18.7,22h36.8Z"/>
    <path class="st5" d="M2631.1,1325.3c0-12-.1-16.4-.2-19.6h7.6c.2,1.4.4,8.8.3,11.2,2.7-6.2,8.3-12.5,20-12.5s21,6.1,21,24.6v41.7h-7.8v-40.7c0-10.5-4-18.4-14.5-18.4s-18.7,10.7-18.7,25.3v33.9h-7.7v-45.4Z"/>
    <path class="st5" d="M2750.8,1337.3c0,18.7-8.3,34.6-28.4,34.6s-27.4-16-27.4-34.3,9.7-33.1,28.2-33.1,27.6,13.4,27.6,32.9ZM2703.1,1337.6c0,15.4,7,27.5,20,27.5s19.6-11.6,19.6-27.7-6.7-26.1-19.9-26.1-19.7,11.1-19.7,26.4Z"/>
    <path class="st5" d="M2757.3,1305.7h11.2v-19.6h7.7v19.6h14.1v6.7h-14.1v43.4c0,6.1,1.5,8.9,7.3,8.9s4.3-.2,5.7-.5v6.3c-2.2.8-5.4,1.1-7.8,1.1-8.2,0-12.9-3.2-12.9-13.5v-45.6h-11.2v-6.7Z"/>
    <path class="st5" d="M2835.7,1370.7v-58.3h-10.6v-6.7h10.6v-9.1c0-11,3.2-21.6,16.8-21.6s4.2.2,5.8.8v7c-1.4-.4-3.5-.6-5.8-.6-6.5,0-9.1,4.4-9.1,13.8v9.7h13v6.7h-13v58.3h-7.7Z"/>
    <path class="st5" d="M2916.8,1337.3c0,18.7-8.3,34.6-28.4,34.6s-27.4-16-27.4-34.3,9.7-33.1,28.2-33.1,27.6,13.4,27.6,32.9ZM2869,1337.6c0,15.4,7,27.5,20,27.5s19.6-11.6,19.6-27.7-6.7-26.1-19.9-26.1-19.7,11.1-19.7,26.4Z"/>
    <path class="st5" d="M2979.5,1352.5c0,7.3.1,15.2.2,18.2h-7.4c-.4-1.7-.5-6.2-.5-11.4-2.5,7.2-9.4,12.6-19.8,12.6s-20.1-3.5-20.1-22.5v-43.7h7.6v42c0,9.1,2.8,17.2,14.2,17.2s17.9-7.2,17.9-23.4v-35.8h7.9v46.8Z"/>
    <path class="st5" d="M2999.6,1325.3c0-12-.1-16.4-.2-19.6h7.6c.2,1.4.4,8.8.3,11.2,2.7-6.2,8.3-12.5,20-12.5s21,6.1,21,24.6v41.7h-7.8v-40.7c0-10.5-4-18.4-14.5-18.4s-18.7,10.7-18.7,25.3v33.9h-7.7v-45.4Z"/>
    <path class="st5" d="M3116.9,1276.2v77.6c0,5.7,0,12.3.2,16.8h-7.6c-.2-1.7-.3-6.2-.3-10.5-3.5,8.2-9.3,11.7-20.2,11.7-16.9,0-25.6-14.4-25.6-33.5s9.7-34.1,27.4-34.1,16.5,4.7,18.3,8.8v-36.9h7.7ZM3071.6,1338.1c0,17.4,8.2,26.9,18.9,26.9,15.6,0,19-12,19-28.4s-5.8-25.2-18.2-25.2-19.7,9.9-19.7,26.7Z"/>
  </g>
  <path class="st5" d="M1639.2,1441.4c-29.5,0-53.5,23.9-53.5,53.4s23.9,53.5,53.5,53.5,53.4-23.9,53.4-53.5-23.9-53.4-53.4-53.4ZM1639.2,1533.8c-21.5,0-39-17.4-39-39s17.4-39,39-39,39,17.4,39,39-17.4,39-39,39Z"/>
  <path class="st5" d="M2230.4,741.7c-18.8,0-34.1,15.3-34.1,34.1s15.3,34.1,34.1,34.1,34.1-15.3,34.1-34.1-15.3-34.1-34.1-34.1ZM2230.4,800.7c-13.7,0-24.9-11.1-24.9-24.9s11.1-24.9,24.9-24.9,24.9,11.1,24.9,24.9-11.1,24.9-24.9,24.9Z"/>
  <path class="st5" d="M3970.7,997.2c-18.8,0-34.1,15.3-34.1,34.1s15.3,34.1,34.1,34.1,34.1-15.3,34.1-34.1-15.3-34.1-34.1-34.1ZM3970.7,1056.2c-13.7,0-24.9-11.1-24.9-24.9s11.1-24.9,24.9-24.9,24.9,11.1,24.9,24.9-11.1,24.9-24.9,24.9Z"/>
  <path class="st5" d="M3518.2,957.6c-29.5,0-53.5,23.9-53.5,53.4s23.9,53.5,53.5,53.5,53.4-23.9,53.4-53.5-23.9-53.4-53.4-53.4ZM3518.2,1050.1c-21.5,0-39-17.4-39-39s17.4-39,39-39,39,17.4,39,39-17.4,39-39,39Z"/>
  <g>
    <rect class="st5" x="3817.7" y="617.3" width="10.7" height="21.6"/>
    <rect class="st5" x="3817.7" y="663.4" width="10.7" height="21.6"/>
    <rect class="st5" x="3789.2" y="645.8" width="21.6" height="10.7"/>
    <rect class="st5" x="3835.2" y="645.8" width="21.6" height="10.7"/>
  </g>
  <g>
    <rect class="st5" x="1479.6" y="1031.3" width="15.8" height="31.8"/>
    <rect class="st5" x="1479.6" y="1099" width="15.8" height="31.8"/>
    <rect class="st5" x="1437.7" y="1073.2" width="31.8" height="15.8"/>
    <rect class="st5" x="1505.4" y="1073.2" width="31.8" height="15.8"/>
  </g>
</svg>