<?xml version="1.0" encoding="UTF-8"?>
<svg xmlns="http://www.w3.org/2000/svg" version="1.1" viewBox="0 0 200 200">
  <!-- Generator: Adobe Illustrator 30.1.0, SVG Export Plug-In . SVG Version: 2.1.1 Build 136)  -->
  <defs>
    <style>
      .st0 {
        fill: #fceede;
      }

      .st1 {
        fill: #ed9267;
      }

      .st2 {
        fill: #ffc999;
      }

      .st3 {
        fill: #5e827a;
      }

      .st4 {
        isolation: isolate;
      }

      .st5 {
        mix-blend-mode: multiply;
      }

      .st6 {
        fill: #756254;
      }

      .st7 {
        fill: #fbc56c;
      }
    </style>
  </defs>
  <g class="st4">
    <g id="Calque_1">
      <g>
        <path class="st0" d="M200,99.7c0,19.1-5.4,37-14.7,52.2-.3.5-.7,1.1-1,1.6-.7,1.1-1.5,2.3-2.3,3.4-.2.3-.4.5-.5.8,0,0,0,0,0,0-.3.4-.5.7-.8,1.1,0,0,0,.1-.1.2-.2.3-.4.5-.6.8,0,0-.1.2-.2.3-.1.2-.3.4-.4.6-.2.3-.5.6-.7.9-.3.3-.5.7-.8,1,0,0-.1.2-.2.3,0,0-.1.2-.2.2-.6.8-1.3,1.5-2,2.3,0,0,0,.1-.1.2-.2.3-.4.5-.7.8,0,0,0,0,0,.1,0,0,0,0-.1.1-.1.2-.3.3-.4.5,0,.1-.2.2-.3.3-.9,1-1.9,2-2.9,3,0,0-.1.1-.2.2-.7.7-1.4,1.4-2.1,2.1,0,0,0,0,0,0-.3.3-.6.6-.9.8-.1.1-.3.3-.4.4,0,0,0,0-.2.1-.5.4-.9.8-1.4,1.2-.1.1-.2.2-.4.3-.3.3-.6.5-.9.8-1.2,1-2.5,2.1-3.8,3-2.4,1.8-4.8,3.5-7.4,5.1h0c-.2.1-.4.3-.7.4,0,0-.1,0-.2.1-.2.1-.4.2-.6.3h0c-.3.2-.7.4-1,.6-.4.3-.9.5-1.3.8-6.4,3.6-13.2,6.5-20.4,8.7-.3,0-.5.2-.8.2-.2,0-.5.1-.7.2-.3,0-.5.1-.8.2-.1,0-.3,0-.4.1h0c0,0-.1,0-.2,0-1,.3-2,.5-3,.8,0,0-.1,0-.2,0h0c-.7.2-1.4.3-2,.4-.2,0-.3,0-.5,0-.7.1-1.4.3-2.1.4,0,0,0,0,0,0-.1,0-.2,0-.3,0-.5,0-1,.2-1.6.3-.1,0-.2,0-.3,0-.2,0-.5,0-.7.1h0c-.1,0-.3,0-.4,0-.2,0-.5,0-.7,0-.3,0-.5,0-.8.1,0,0,0,0,0,0,0,0,0,0,0,0-.4,0-.7,0-1.1.1h0c-1.2.1-2.3.3-3.5.3-.4,0-.8,0-1.1,0-.1,0-.3,0-.4,0-.9,0-1.9.1-2.8.1-.2,0-.5,0-.7,0-1,0-2,0-3,0s-2,0-3,0c-.2,0-.5,0-.7,0-.9,0-1.9,0-2.8-.1-.6,0-1.2,0-1.8-.1-.4,0-.9,0-1.3-.1-.1,0-.3,0-.4,0-1.4-.1-2.9-.3-4.3-.5,0,0,0,0,0,0-.8-.1-1.5-.2-2.3-.4-.5,0-.9-.2-1.4-.2-.2,0-.4,0-.6-.1-1-.2-2-.4-3-.6-.4,0-.8-.2-1.1-.3-.2,0-.3,0-.5-.1-.6-.1-1.2-.3-1.7-.4h0c0,0-.1,0-.2,0h0c0,0-.2,0-.3,0,0,0-.2,0-.2,0,0,0,0,0-.1,0-.1,0-.3,0-.4-.1-.2,0-.5-.1-.7-.2,0,0-.1,0-.2,0-.2,0-.4-.1-.6-.2,0,0,0,0,0,0-.1,0-.2,0-.3,0,0,0,0,0-.1,0,0,0,0,0,0,0h0s0,0-.1,0c0,0,0,0,0,0-.5-.2-1.1-.3-1.6-.5-4-1.3-7.8-2.8-11.6-4.5-.2,0-.4-.2-.6-.3-.2,0-.4-.2-.6-.3-.2,0-.4-.2-.6-.3-2.7-1.3-5.4-2.8-8-4.3-.1,0-.3-.2-.4-.2,0,0-.2-.1-.2-.2-.2-.1-.4-.3-.7-.4-.3-.2-.7-.4-1-.6-.5-.3-.9-.6-1.4-.9h0c-.1,0-.2-.1-.3-.2-1.5-1-2.9-2-4.4-3.1-1.3-1-2.5-2-3.8-3-.5-.5-1.1-.9-1.6-1.4-.3-.3-.6-.5-.9-.8-.1-.1-.3-.2-.4-.3l-.5-.5c-.8-.7-1.5-1.4-2.2-2.1,0,0-.1-.1-.2-.2-.3-.2-.5-.5-.8-.7h0c0-.1-.1-.2-.2-.3-.1-.1-.3-.3-.4-.4-1-1-1.9-2-2.9-3,0-.1-.2-.2-.3-.3-.2-.2-.4-.4-.6-.7,0,0,0,0,0,0,0,0-.1-.2-.2-.2-.7-.8-1.4-1.6-2.1-2.5,0,0-.1-.2-.2-.2-.4-.5-.8-1-1.2-1.6-.3-.3-.5-.7-.8-1-.1-.2-.3-.4-.4-.5,0-.1-.2-.3-.3-.4,0,0,0,0,0,0-.2-.3-.4-.6-.6-.9-.2-.2-.3-.5-.5-.7-.9-1.2-1.7-2.5-2.5-3.7C6.5,138.3.6,119.7.6,99.7.6,61.9,21.7,28.9,52.8,12.1c.2,0,.3-.2.5-.3,6.7-3.6,13.8-6.4,21.3-8.4.7-.2,1.4-.4,2-.5h0c5.4-1.3,11-2.2,16.7-2.6,1.5-.1,2.9-.2,4.4-.2.9,0,1.7,0,2.6,0s1.3,0,1.9,0c1.4,0,2.7,0,4.1.2,1.7,0,3.3.2,5,.4,3,.3,6,.8,8.9,1.4,2.1.4,4.2.9,6.3,1.5,4.9,1.3,9.7,3,14.3,5.1.1,0,.2,0,.3.1,34.7,15.6,58.9,50.5,58.9,91Z"/>
        <g>
          <path class="st1" d="M53.9,161.9h93.6c.9,0,1.7-.7,1.7-1.7l-.4-75c0-10.5,0-20.8-2.8-31C133.1,6.6,101.7,14.7,95.2,15.8c-.9.1-1.7.3-2.6.3-22.3,1.1-41.4,29.7-40.3,59.7v84.5c0,.9.7,1.7,1.7,1.7Z"/>
          <ellipse class="st2" cx="66.8" cy="70.6" rx="5.7" ry="9"/>
          <ellipse class="st2" cx="134.8" cy="70.6" rx="5.7" ry="9"/>
          <path class="st3" d="M174.9,164.7c-.9-1.5-1.8-2.9-2.8-4.2-.4-.5-.8-1.1-1.1-1.6-.7-1-1.5-2-2.2-2.9-5-6.3-9.9-10.6-13.4-12.9-.3-.2-.5-.4-.8-.5h0s0,0,0,0c0,0,0,0,0,0-.5-.4-.7-1-.6-1.6,0,0,0,0,0,0,0,0,0,0,0-.1,0,0,0-.1,0-.2,0,0,0,0,0-.1,0,0,0-.1,0-.2,0,0,0,0,0-.1,0,0,0,0,0,0,0,0,0,0,0-.1,0,0,0,0,0-.1,0-.6,0-1.1-.2-1.7-.6-2.1-2.4-4.1-4.7-6,0,0,0,0-.1-.1h0c-2.9-2.3-6.5-4.2-9.6-5.6-4.8-2.2-16.5-5-25-6.9-.2,0-.4,0-.6-.1h0s0,0,0,0c-1.7-.4-3.2-.7-4.5-1-1.5-.3-2.6-.6-3.3-.7h-11.5c-.5.1-1.3.3-2.2.5-1.1.2-2.3.5-3.8.8-.1,0-.2,0-.3,0-8.4,1.9-21.9,5-27.1,7.4-2.8,1.3-6.1,3-8.9,5.1-2.7,2-4.9,4.2-5.5,6.6-.2.6-.2,1.1-.2,1.7,0,0,0,0,0,.1,0,0,0,0,0,.1,0,0,0,0,0,0,0,0,0,0,0,.1,0,0,0,.1,0,.2,0,0,0,0,0,.1,0,0,0,.1,0,.2,0,0,0,0,0,.1,0,0,0,0,0,0,.1.6,0,1.2-.6,1.6h0s0,0,0,0h0c-.3.2-.5.3-.8.5-3.5,2.4-8.3,6.6-13.4,12.9-.7.9-1.5,1.9-2.2,2.9-.4.5-.8,1-1.1,1.6-.9,1.3-1.9,2.7-2.8,4.2-.1.2-.3.5-.4.7,0,0,.1.2.2.2,0,0,0,0,0,0,.2.2.4.4.6.7,0,.1.2.2.3.3.9,1,1.9,2.1,2.9,3,.1.1.3.3.4.4,0,0,.1.1.2.2h0c.2.3.5.6.8.8,0,0,.1.1.2.2.7.7,1.5,1.4,2.2,2.1l.5.5c.1.1.3.2.4.3.3.3.6.5.9.8.5.5,1.1.9,1.6,1.4,1.2,1,2.5,2,3.8,3,1.4,1.1,2.9,2.1,4.4,3.1.1,0,.2.1.3.2h0c.5.3.9.6,1.4.9.3.2.7.4,1,.6.2.1.4.3.7.4,0,0,.2.1.2.2.1,0,.3.2.4.2,2.6,1.6,5.3,3,8,4.3.2,0,.4.2.6.3.2,0,.4.2.6.3.2,0,.4.2.6.3,3.7,1.7,7.6,3.2,11.6,4.5.5.2,1.1.3,1.6.5,0,0,0,0,0,0,0,0,0,0,.1,0h0s0,0,0,0c0,0,0,0,.1,0,.1,0,.2,0,.3,0,0,0,0,0,0,0,.2,0,.4.1.6.2,0,0,.1,0,.2,0,.2,0,.5.1.7.2.1,0,.3,0,.4.1,0,0,0,0,.1,0,0,0,.2,0,.2,0,0,0,.2,0,.3,0h0c0,0,.1,0,.2,0h0c.6.2,1.2.3,1.7.4.2,0,.3,0,.5.1.4,0,.8.2,1.1.3,1,.2,2,.4,3,.6.2,0,.4,0,.6.1.5,0,.9.2,1.4.2.8.1,1.5.2,2.3.4,0,0,0,0,0,0,1.4.2,2.9.4,4.3.5.1,0,.3,0,.4,0,.4,0,.9,0,1.3.1.6,0,1.2,0,1.8.1.9,0,1.9.1,2.8.1.2,0,.5,0,.7,0,1,0,2,0,3,0s2,0,3,0c.2,0,.5,0,.7,0,.9,0,1.9,0,2.8-.1.1,0,.3,0,.4,0,.4,0,.8,0,1.1,0,1.2,0,2.4-.2,3.5-.3h0c.4,0,.7,0,1.1-.1,0,0,0,0,0,0,0,0,0,0,0,0,.3,0,.5,0,.8-.1.2,0,.5,0,.7,0,.1,0,.3,0,.4,0h0c.2,0,.5,0,.7-.1.1,0,.2,0,.3,0,.5,0,1-.2,1.6-.3.1,0,.2,0,.3,0,0,0,0,0,0,0,.7-.1,1.4-.3,2.1-.4.2,0,.3,0,.5,0,.7-.1,1.4-.3,2-.4h0c0,0,.1,0,.2,0,1-.2,2-.5,3-.8,0,0,.1,0,.2,0h0c.1,0,.3,0,.4-.1.3,0,.5-.1.8-.2.2,0,.5-.1.7-.2.3,0,.5-.2.8-.2,7.2-2.1,14-5.1,20.4-8.7.5-.3.9-.5,1.3-.8.3-.2.7-.4,1-.6h0c.2-.1.4-.2.6-.3,0,0,.1,0,.2-.1.2-.1.4-.3.7-.4h0c2.5-1.6,5-3.3,7.4-5.1,1.3-1,2.6-2,3.8-3,.3-.3.6-.5.9-.8.1-.1.2-.2.4-.3.5-.4.9-.8,1.4-1.2,0,0,.1,0,.2-.1.1-.1.3-.3.4-.4.3-.3.6-.6.9-.8,0,0,0,0,0,0,.7-.7,1.4-1.4,2.1-2.1,0,0,.1-.1.2-.2,1-1,2-2,2.9-3,0-.1.2-.2.3-.3.1-.2.3-.3.4-.5,0,0,0,0,.1-.1,0,0,0,0,0-.1.2-.3.4-.5.7-.8-.1-.2-.3-.5-.4-.7Z"/>
          <path class="st6" d="M101.8,172.1"/>
          <path class="st2" d="M116.6,145.5c-1.6,1.3-7.1,5.4-15.2,5.4-8.3,0-13.8-4.2-15.4-5.4.9-9.2,1.8-18.4,2.7-27.5v-1.2c.1,0,1.5-13.9,1.5-13.9l21.8-2.4c.2,2,.9,8.7,1.7,16.4,0,0,0,.1,0,.2,1.1,10.6,2.9,28.5,2.9,28.5Z"/>
          <g class="st5">
            <path class="st2" d="M113.7,116.9c-3.8,1.7-8,2.6-12.3,2.6s-8.6-1-12.5-2.7l1.4-13.9,21.8-2.4c.2,2,.9,8.7,1.7,16.4Z"/>
          </g>
          <path class="st2" d="M124.4,40.5c-6.1-6.4-14.2-10.2-23-10.2s-11,1.6-15.7,4.4c-11.4,6.7-19.2,20.5-19.1,36.5,0,7.1,2.9,16.8,3.1,16.8,5.5,14.2,17.6,24,31.8,24s23.7-7.9,29.8-19.7c.2-.4.5-.9.7-1.3,0-.1.1-.3.2-.5,0-.2.2-.4.3-.6,2.4-5.4,3.8-11.6,3.9-18.1,0,0,0,0,0,0,0-.2,0-.4,0-.6,0-12.2-4.6-23.1-11.8-30.6Z"/>
          <path class="st7" d="M77.3,195.5c0,.2,0,.4,0,.6h0c0,.2-.2.4-.3.6-.6-.1-1.2-.3-1.7-.4h0c0,0-.1,0-.2,0h0c0,0-.2,0-.3,0,0,0-.2,0-.2,0,0,0,0,0-.1,0,0,0,0,0,0-.1,0,0,0-.7-.2-1.7-.2-2.1-.7-5.9-1-9.9-.8-11.2-.2-14.1.4-15.3.8-1.7.8-4.5.5-7-.2-1.6-.4-3.1-.7-4-.2-.8.3-1.6,1.1-1.8.8-.2,1.6.3,1.8,1.1,0,0,.5,2.1.8,4.7,0,0,0,0,0,0,.3,3.6,0,6.4-.9,8.3-.2.5-1,3-.1,13.8.3,4,.7,7.8.9,9.9.1,1,.2,1.6.2,1.6Z"/>
          <path class="st7" d="M78.7,196.4c0,.2,0,.4,0,.6-.4,0-.8-.2-1.1-.3-.2,0-.3,0-.5-.1-.6-.1-1.2-.3-1.7-.4h0c0,0-.1,0-.2,0h0c0,0-.2,0-.3,0,0,0-.2,0-.2,0,0,0,0,0-.1,0-.1,0-.3,0-.4-.1-.2,0-.5-.1-.7-.2,0,0-.1,0-.2,0,.2-.6.5-1.1,1-1.5.5-.4,1.1-.6,1.7-.6s.9.1,1.3.3h0c.9.5,1.6,1.4,1.6,2.5Z"/>
          <path class="st7" d="M77.5,196.8c-.2,0-.3,0-.5-.1-.6-.1-1.2-.3-1.7-.4h0c0,0-.1,0-.2,0h0c0,0-.2,0-.3,0,0,0-.2,0-.2,0,.2-.6.8-1,1.4-.9.6,0,1.2.4,1.4,1h0c0,0,0,0,0,.1h0c0,0,0,.4,0,.4h0Z"/>
          <g>
            <path class="st7" d="M121.2,193.7c0,0-.1,0-.2,0-.8-.1-1.4-.9-1.3-1.7,0,0,.7-5.6,1.1-11.5.2-2.7.8-11.8-.1-13.8-.9-1.9-1.2-4.7-.9-8.3.2-2.6.7-4.6.8-4.7.2-.8,1-1.3,1.8-1.1.8.2,1.3,1,1.1,1.8-.5,2.1-1.5,8.1-.1,10.9.6,1.2,1.3,4.1.4,15.3-.5,6-1.1,11.6-1.2,11.6,0,.8-.7,1.3-1.5,1.3Z"/>
            <circle class="st7" cx="121.2" cy="193.6" r="2.8"/>
          </g>
        </g>
      </g>
    </g>
  </g>
</svg>